<svg xmlns="http://www.w3.org/2000/svg" width="23" height="22" viewBox="0 0 23 22" fill="none">
<path d="M21.5021 20.043H1.69558C1.35052 20.043 1.03155 20.2293 0.85889 20.5318C0.686359 20.8345 0.686359 21.2073 0.85889 21.5097C1.03159 21.8122 1.35052 21.9986 1.69558 21.9986H21.5021C21.8472 21.9986 22.1662 21.8122 22.3388 21.5097C22.5114 21.2072 22.5114 20.8345 22.3388 20.5318C22.1661 20.2293 21.8472 20.043 21.5021 20.043Z" fill="#52379D"/>
<path d="M8.87305 2.22266H14.3242V3.4671H8.87305V2.22266Z" fill="#52379D"/>
<path d="M11.0623 16.3682C11.2045 16.5123 11.3976 16.5931 11.5988 16.5931C11.8 16.5931 11.9931 16.5123 12.1353 16.3682L18.1756 10.2551C18.2804 10.1493 18.3117 9.98982 18.255 9.85136C18.1983 9.7129 18.0649 9.62252 17.9168 9.62269H14.3243V6.66406H8.87319V9.62269H5.28071C5.13261 9.62269 4.99917 9.7129 4.94238 9.85136C4.88577 9.98982 4.91711 10.1493 5.02191 10.2551L11.0623 16.3682Z" fill="#52379D"/>
<path d="M8.87305 4.44531H14.3242V5.68976H8.87305V4.44531Z" fill="#52379D"/>
<path d="M14.3243 0.767859C14.3243 0.56426 14.2443 0.36902 14.1021 0.22491C13.9597 0.0809927 13.7668 0 13.5656 0H9.63177C9.43059 0 9.23767 0.0808268 9.09528 0.22491C8.95308 0.368828 8.87305 0.564238 8.87305 0.767859V1.24446H14.3242L14.3243 0.767859Z" fill="#52379D"/>
</svg>
