<svg xmlns="http://www.w3.org/2000/svg" width="20" height="20" viewBox="0 0 20 20" fill="none">
<path fill-rule="evenodd" clip-rule="evenodd" d="M4.16651 3.23438C3.88963 3.23438 3.63528 3.38692 3.50489 3.63116C3.37449 3.87541 3.38927 4.17163 3.54332 4.40168L8.2868 11.4853V18.151C8.2868 18.4215 8.43246 18.6711 8.668 18.8041C8.90355 18.9371 9.19246 18.933 9.42411 18.7933L11.351 17.6313C11.576 17.4956 11.7136 17.2519 11.7136 16.9891V11.4861L16.4564 4.4016C16.6104 4.17154 16.6252 3.87534 16.4948 3.63112C16.3644 3.3869 16.11 3.23438 15.8332 3.23438H4.16651ZM9.65998 10.8401L5.57136 4.73437H14.4285L10.3404 10.8409C10.2578 10.9644 10.2136 11.1096 10.2136 11.2582V16.5655L9.7868 16.8229V11.2574C9.7868 11.1088 9.74266 10.9635 9.65998 10.8401Z" fill="#343434" fill-opacity="0.6"/>
</svg>
