<svg width="21" height="20" viewBox="0 0 21 20" fill="none" xmlns="http://www.w3.org/2000/svg">
<path fill-rule="evenodd" clip-rule="evenodd" d="M7.37139 18.8484C7.73511 19.2179 8.16968 19.5103 8.64895 19.7081C9.12822 19.906 9.64246 20.005 10.1609 19.9996C10.6782 20.007 11.1914 19.9088 11.6694 19.7108C12.1473 19.5128 12.5797 19.2193 12.9403 18.8484V18.8484C13.1281 18.6597 13.2676 18.4284 13.3467 18.1742C13.4259 17.92 13.4424 17.6505 13.3949 17.3886C13.2058 16.3538 12.8546 14.4763 12.5411 12.7241C12.1144 10.4295 13.7942 8.23599 16.374 7.70998C18.3289 7.31785 19.8177 5.93303 20.1592 4.20563C20.1969 4.00559 20.2351 3.82198 20.2635 3.66331C20.2772 3.58905 20.2704 3.51262 20.2438 3.44198C20.2171 3.37134 20.1715 3.30925 20.1121 3.26261C20.0486 3.21239 19.9749 3.17675 19.8961 3.15806C19.8173 3.13936 19.7354 3.13817 19.6561 3.1545C19.0878 3.27953 18.2905 3.44689 17.6356 3.58805C17.2781 3.65412 16.9396 3.79829 16.6444 4.0105C16.3492 4.22272 16.1043 4.4976 15.9278 4.81544V4.81544C15.8379 4.98076 15.705 5.1186 15.5429 5.21414C15.3808 5.30967 15.1956 5.35924 15.0074 5.35776C14.8181 5.36757 14.6296 5.32826 14.46 5.24344C14.2904 5.15862 14.1457 5.03121 14.04 4.87382C14.0018 4.80722 13.9548 4.74021 13.9263 4.68225C13.8161 4.51255 13.7538 4.31618 13.7461 4.11395C13.7177 3.68864 13.6799 2.88636 13.6511 2.34557C13.6347 1.95335 13.7162 1.56319 13.8882 1.21031C13.9176 1.15669 13.943 1.10105 13.9641 1.04359C14.0174 0.935642 14.0315 0.812471 14.0038 0.69529C13.9761 0.578109 13.9083 0.474207 13.8122 0.401596C13.8122 0.392731 13.8029 0.385144 13.7936 0.376733C13.4875 0.134165 13.1088 0.00162238 12.7183 1.47744e-05C12.3277 -0.00159283 11.9479 0.128035 11.6398 0.368076V0.368076C11.5146 0.462441 11.4274 0.598606 11.3943 0.751898C11.3612 0.90519 11.3844 1.06535 11.4596 1.20298C11.4622 1.20484 11.4642 1.20712 11.4658 1.20986C11.4674 1.21261 11.4685 1.21559 11.4689 1.21874C11.6469 1.54107 11.7415 1.90277 11.7442 2.27098C11.7535 2.7213 11.7535 3.36356 11.7535 3.83957C11.7499 4.04788 11.6985 4.25257 11.6032 4.43783C11.5079 4.62309 11.3713 4.784 11.2038 4.90801V4.90801C10.8984 5.13088 10.5302 5.25156 10.152 5.25298C9.77391 5.25441 9.40497 5.13656 9.09781 4.916C9.06849 4.89941 9.04942 4.87443 9.021 4.85806C8.91072 4.77758 8.81971 4.6737 8.75417 4.55394C8.68863 4.43417 8.65018 4.30128 8.64184 4.16501C8.62275 3.68105 8.58455 2.88861 8.56637 2.34646C8.55157 1.96554 8.63993 1.58779 8.8221 1.25293C8.84119 1.21952 8.86028 1.19442 8.87937 1.16191C8.9471 1.03913 8.96899 0.89642 8.94109 0.759002C8.91319 0.621583 8.83734 0.498455 8.72709 0.411808C8.43315 0.17524 8.06958 0.0420322 7.69239 0.0328694C7.31519 0.0237066 6.94545 0.139178 6.64037 0.361194C6.64037 0.369377 6.63107 0.369422 6.62084 0.378287C6.51675 0.450171 6.44154 0.556508 6.40862 0.678641C6.37569 0.800774 6.38718 0.930686 6.44103 1.04515C6.48854 1.16199 6.55467 1.28727 6.60264 1.40411C6.71753 1.64979 6.77869 1.9172 6.782 2.1884V3.65709C6.77962 4.0751 6.64348 4.48128 6.39352 4.81633V4.81633C6.26486 4.97697 6.10016 5.10517 5.91291 5.19061C5.72566 5.27604 5.52097 5.31638 5.31531 5.30826C5.10965 5.30014 4.90875 5.24391 4.72881 5.14399C4.54888 5.04407 4.3951 4.90315 4.2795 4.73286V4.73286C4.08789 4.42675 3.83441 4.16416 3.53539 3.96166C3.23636 3.75917 2.89824 3.62126 2.54287 3.55697C1.91683 3.43149 1.15812 3.28111 0.60755 3.16449C0.527823 3.15185 0.446436 3.15554 0.368244 3.17559C0.290052 3.19565 0.216713 3.23158 0.152913 3.28104C0.0929743 3.32686 0.0476045 3.38908 0.0223822 3.46019C-0.00284002 3.53129 -0.00682829 3.60816 0.0108387 3.68151C0.0387989 3.81517 0.0676719 3.9735 0.105407 4.14081C0.475709 5.82638 1.88948 7.18578 3.76781 7.65315C3.86192 7.67838 3.94762 7.7034 4.04264 7.7284C6.54723 8.35421 8.12173 10.5149 7.73279 12.7765C7.43887 14.5193 7.10633 16.4135 6.93584 17.4483C6.89426 17.6984 6.91206 17.9548 6.98779 18.1968C7.06352 18.4388 7.19507 18.6597 7.37183 18.8415L7.37139 18.8484Z" fill="#52379D"/>
<path fill-rule="evenodd" clip-rule="evenodd" d="M14.239 15.8197C14.239 15.8197 12.4366 12.5072 13.6509 11.9648C13.9599 11.8462 14.298 11.8258 14.619 11.9064C15.2166 12.0315 15.8804 11.5309 16.0888 11.0471C16.0133 11.3355 15.8745 11.6036 15.6826 11.8316C15.4906 12.0597 15.2503 12.2422 14.9791 12.3657C14.0693 12.7656 16.4126 14.0257 14.239 15.8197Z" fill="#52379D"/>
<path fill-rule="evenodd" clip-rule="evenodd" d="M5.95282 15.8201C5.95282 15.8201 7.75523 12.5078 6.54113 11.9654C6.23218 11.8468 5.89413 11.8265 5.5732 11.9072C4.97558 12.0323 4.31158 11.5317 4.10291 11.0477C4.17848 11.3361 4.31729 11.604 4.50929 11.8321C4.70128 12.0601 4.94163 12.2426 5.2129 12.3662C6.12354 12.7663 3.78034 14.0263 5.95282 15.8201Z" fill="#52379D"/>
<path d="M14.8287 11.1848C14.0918 11.3589 13.3758 11.1104 13.2295 10.6307C13.0832 10.1509 13.5617 9.61984 14.2988 9.44625C15.0358 9.27265 15.7518 9.52034 15.8984 10.0003C16.045 10.4802 15.5656 11.0108 14.8287 11.1848Z" fill="#52379D"/>
<path d="M5.89242 9.44527C6.62933 9.61931 7.10851 10.1479 6.96193 10.6288C6.81535 11.1097 6.09924 11.3576 5.3625 11.1838C4.62576 11.0101 4.14664 10.4803 4.29255 10.0002C4.43846 9.52008 5.15523 9.27233 5.89242 9.44527Z" fill="#52379D"/>
<path fill-rule="evenodd" clip-rule="evenodd" d="M13.318 10.7449C13.318 10.7449 12.7842 10.07 14.1572 9.43094C14.4938 9.27482 14.8655 9.20996 15.2351 9.24287C15.8775 9.33507 16.5272 9.36664 17.1755 9.33716C16.5229 9.54978 15.8481 9.68671 15.1642 9.74523C14.8573 9.76702 14.5572 9.84662 14.2798 9.97985C13.9056 10.1591 13.5768 10.4206 13.318 10.7449V10.7449Z" fill="#52379D"/>
<path fill-rule="evenodd" clip-rule="evenodd" d="M6.87609 10.7448C6.87609 10.7448 7.41133 10.07 6.03695 9.43059C5.70039 9.27447 5.32869 9.2096 4.95914 9.24251C4.3167 9.3348 3.66701 9.36644 3.01864 9.33702C3.67122 9.54965 4.34608 9.68657 5.02992 9.7451C5.33686 9.76689 5.63692 9.84649 5.91429 9.97971C6.28849 10.1589 6.6173 10.4205 6.87609 10.7448V10.7448Z" fill="#52379D"/>
<path fill-rule="evenodd" clip-rule="evenodd" d="M11.1227 18.7065C11.2967 18.4619 11.4431 18.1988 11.5593 17.922C11.6565 17.6595 11.7296 17.3888 11.7778 17.113C11.6063 17.3371 11.4162 17.5463 11.2095 17.7384C11.0058 17.9204 10.7831 18.0798 10.5453 18.2141C10.5092 18.2454 10.4805 18.2842 10.4611 18.3278C10.4417 18.3714 10.4323 18.4186 10.4332 18.4663C10.4341 18.514 10.4452 18.5609 10.4662 18.6037C10.4872 18.6465 10.5174 18.6844 10.5546 18.7143C10.6344 18.7815 10.7357 18.8178 10.8401 18.8164C10.9444 18.815 11.0447 18.7759 11.1227 18.7065V18.7065Z" fill="white"/>
<path fill-rule="evenodd" clip-rule="evenodd" d="M9.68449 18.1807C9.43879 18.0854 9.21356 17.944 9.02095 17.7641C8.82415 17.5662 8.64924 17.3477 8.49925 17.1124C8.52613 17.4549 8.60938 17.7907 8.74566 18.1062C8.85409 18.3432 9.00528 18.5582 9.19166 18.7404C9.27829 18.7993 9.38297 18.8256 9.48716 18.8147C9.59134 18.8038 9.68831 18.7564 9.76087 18.6809C9.79276 18.6447 9.81633 18.6019 9.82992 18.5556C9.8435 18.5093 9.84676 18.4606 9.83948 18.413C9.8322 18.3653 9.81455 18.3198 9.78777 18.2796C9.76099 18.2395 9.72573 18.2058 9.68449 18.1807V18.1807Z" fill="white"/>
</svg>
