<svg width="23" height="26" viewBox="0 0 23 26" fill="none" xmlns="http://www.w3.org/2000/svg">
<g id="ilustra">
<g id="Padlock">
<path id="Vector" d="M20.8391 5.84307V11.7622H19.1664V5.84307C19.1664 3.59214 17.4568 1.76183 15.3537 1.76183C13.2505 1.76183 11.5409 3.59214 11.5409 5.84307V11.7622H9.86816V5.84307C9.86816 2.61938 12.3289 0 15.3537 0C18.3784 0 20.8391 2.61938 20.8391 5.84307Z" fill="#455A64"/>
<path id="Vector_2" d="M9.86816 7.38281L11.5409 7.4502V11.7629H9.86816V7.38281Z" fill="#263238"/>
<path id="Vector_3" d="M20.8387 7.82629V11.7597H19.166V7.75781L20.8387 7.82629Z" fill="#263238"/>
<path id="Vector_4" d="M22.9833 8.39062H7.72461V22.2342H22.9833V8.39062Z" fill="#8354BE"/>
<path id="Vector_5" opacity="0.1" d="M22.9823 8.39062H15.3535V22.2342H22.9823V8.39062Z" fill="black"/>
<path id="Vector_6" d="M15.999 15.8181L16.637 18.8473H13.9263L14.5654 15.8181C14.3155 15.6624 14.1231 15.4295 14.0173 15.1547C13.9115 14.8799 13.8981 14.5782 13.9791 14.2951C14.0601 14.012 14.231 13.7629 14.4662 13.5857C14.7013 13.4084 14.9877 13.3125 15.2822 13.3125C15.5766 13.3125 15.863 13.4084 16.0982 13.5857C16.3333 13.7629 16.5042 14.012 16.5852 14.2951C16.6662 14.5782 16.6528 14.8799 16.547 15.1547C16.4412 15.4295 16.2489 15.6624 15.999 15.8181Z" fill="#263238"/>
</g>
<g id="Shield">
<path id="Vector_7" d="M10.921 15.8141C10.921 15.8141 10.1232 22.2006 8.81243 23.6396C7.23863 25.3634 6.09523 25.1113 5.46049 26.0003C4.82575 25.1102 3.68344 25.3634 2.10746 23.6385C0.796684 22.2006 0 15.813 0 15.813C3.45411 14.137 5.46266 12.2578 5.46266 12.2578C5.52244 12.3165 7.52013 14.1642 10.921 15.8141Z" fill="#EBEBEB"/>
<path id="Vector_8" d="M5.46244 12.2589V25.9992C4.82771 25.1091 3.68539 25.3623 2.10942 23.6375C0.798637 22.1995 0.00195312 15.8119 0.00195312 15.8119C3.45389 14.137 5.46244 12.2578 5.46244 12.2578V12.2589Z" fill="#DBDBDB"/>
<path id="Vector_9" d="M10.0743 16.3294C10.0743 16.3294 9.40044 21.7236 8.2929 22.9388C6.96147 24.3974 5.99632 24.1832 5.4594 24.9343C4.92248 24.1832 3.95733 24.3974 2.62699 22.9388C1.51946 21.7236 0.84668 16.3294 0.84668 16.3294C3.76496 14.9165 5.4594 13.3242 5.4594 13.3242C5.4594 13.3242 7.15602 14.9122 10.0743 16.3294Z" fill="#DBDBDB"/>
<path id="Vector_10" d="M0.847656 16.3312C0.847656 16.3312 1.52152 21.7254 2.62905 22.9405C3.95831 24.398 4.91911 24.185 5.46255 24.9338V13.3281C5.4093 13.3759 3.72354 14.9356 0.847656 16.3312Z" fill="#C7C7C7"/>
<path id="Vector_11" d="M6.97302 20.6414C7.80834 19.8061 7.80834 18.4517 6.97302 17.6164C6.13769 16.7811 4.78336 16.7811 3.94804 17.6164C3.11271 18.4517 3.11271 19.8061 3.94804 20.6414C4.78336 21.4767 6.13769 21.4767 6.97302 20.6414Z" fill="#8354BE"/>
<path id="Vector_12" d="M5.21687 20.5177L4.26367 19.5264L4.61691 19.1862L5.14187 19.7329L6.2744 17.9961L6.68524 18.2635L5.21687 20.5177Z" fill="white"/>
</g>
</g>
</svg>
