<svg width="24" height="24" viewBox="0 0 24 24" fill="none" xmlns="http://www.w3.org/2000/svg">
<g clip-path="url(#clip0_1052_1001)">
<path d="M13 2C12.7348 2 12.4804 2.10536 12.2929 2.29289C12.1054 2.48043 12 2.73478 12 3V11C12 11.2652 12.1054 11.5196 12.2929 11.7071C12.4804 11.8946 12.7348 12 13 12H21C21.2652 12 21.5196 11.8946 21.7071 11.7071C21.8946 11.5196 22 11.2652 22 11C22 8.61305 21.0518 6.32387 19.364 4.63604C17.6761 2.94821 15.3869 2 13 2ZM14 10V4.07C15.4962 4.28561 16.8824 4.97978 17.9513 6.04868C19.0202 7.11759 19.7144 8.50379 19.93 10H14Z" fill="#343434"/>
<path d="M20.8201 14.0601C20.696 14.0158 20.5644 13.9964 20.4328 14.0031C20.3012 14.0097 20.1722 14.0424 20.0533 14.099C19.9343 14.1557 19.8278 14.2354 19.7397 14.3334C19.6516 14.4314 19.5838 14.5458 19.5401 14.6701C19.0894 15.944 18.3234 17.0831 17.3136 17.9809C16.3037 18.8787 15.0829 19.5061 13.7649 19.8046C12.447 20.103 11.075 20.0628 9.77684 19.6876C8.47869 19.3124 7.29673 18.6145 6.34123 17.659C5.38573 16.7035 4.68783 15.5215 4.31264 14.2234C3.93745 12.9252 3.8972 11.5532 4.19564 10.2353C4.49408 8.91736 5.12148 7.69652 6.01932 6.68664C6.91716 5.67677 8.05617 4.91077 9.33009 4.46012C9.58072 4.3726 9.78632 4.1891 9.90165 3.94999C10.017 3.71088 10.0326 3.43575 9.94509 3.18512C9.85757 2.93449 9.67407 2.7289 9.43496 2.61356C9.19585 2.49823 8.92072 2.4826 8.67009 2.57012C7.07713 3.1329 5.65272 4.09009 4.5298 5.35234C3.40689 6.6146 2.62207 8.14078 2.24861 9.78843C1.87515 11.4361 1.92521 13.1515 2.39413 14.7746C2.86305 16.3976 3.73553 17.8754 4.93015 19.0701C6.12477 20.2647 7.60258 21.1372 9.22565 21.6061C10.8487 22.075 12.5641 22.1251 14.2118 21.7516C15.8594 21.3781 17.3856 20.5933 18.6479 19.4704C19.9101 18.3475 20.8673 16.9231 21.4301 15.3301C21.5166 15.0808 21.501 14.8074 21.3867 14.5695C21.2725 14.3316 21.0688 14.1485 20.8201 14.0601Z" fill="#343434"/>
</g>
<defs>
<clipPath id="clip0_1052_1001">
<rect width="24" height="24" fill="white"/>
</clipPath>
</defs>
</svg>
