<svg width="24" height="24" viewBox="0 0 24 24" fill="none" xmlns="http://www.w3.org/2000/svg">
<g clip-path="url(#clip0_1052_979)">
<path d="M19.54 5.08014C18.5374 4.08457 17.346 3.29929 16.0358 2.77039C14.7255 2.24148 13.3229 1.97961 11.91 2.00014C9.25788 1.99351 6.7117 3.04072 4.83165 4.9114C2.9516 6.78207 1.89167 9.32298 1.88504 11.9751C1.87841 14.6273 2.92562 17.1735 4.7963 19.0535C6.66697 20.9336 9.20788 21.9935 11.86 22.0001C12.4315 22.0099 12.9901 21.8295 13.448 21.4875C13.9059 21.1454 14.2373 20.6609 14.39 20.1101C14.4874 19.7124 14.4864 19.2969 14.3871 18.8996C14.2878 18.5024 14.0932 18.1353 13.82 17.8301C13.7569 17.7583 13.7157 17.6698 13.7013 17.5752C13.6869 17.4806 13.7 17.3839 13.739 17.2965C13.7779 17.2092 13.8411 17.1348 13.9211 17.0822C14.001 17.0297 14.0944 17.0012 14.19 17.0001H15.84C17.393 17.0074 18.8912 16.4269 20.0338 15.3752C21.1764 14.3234 21.8789 12.8784 22 11.3301C22.0372 10.1758 21.8382 9.02594 21.4152 7.9512C20.9922 6.87647 20.3541 5.89948 19.54 5.08014ZM15.88 15.0001H14.23C13.7482 14.9974 13.2759 15.1346 12.8704 15.395C12.4649 15.6554 12.1437 16.0278 11.9458 16.4672C11.7478 16.9065 11.6816 17.3938 11.7551 17.8701C11.8286 18.3463 12.0388 18.791 12.36 19.1501C12.4226 19.2133 12.4668 19.2922 12.4879 19.3785C12.5091 19.4648 12.5064 19.5553 12.48 19.6401C12.43 19.8501 12.2 19.9801 11.89 20.0001C10.7544 19.9856 9.6348 19.7294 8.60583 19.2486C7.57685 18.7677 6.66205 18.0733 5.92228 17.2115C5.18251 16.3497 4.63472 15.3403 4.31535 14.2503C3.99598 13.1604 3.91236 12.0149 4.07004 10.8901C4.35521 9.00009 5.2996 7.27178 6.73618 6.01088C8.17276 4.74998 10.009 4.03775 11.92 4.00014H12C13.1309 3.98534 14.2532 4.19715 15.3009 4.62309C16.3486 5.04902 17.3003 5.68046 18.1 6.48014C18.724 7.10454 19.2143 7.8495 19.541 8.66959C19.8676 9.48968 20.0238 10.3677 20 11.2501C19.8965 12.2732 19.4186 13.2219 18.6581 13.9141C17.8977 14.6063 16.9083 14.993 15.88 15.0001Z" fill="#343434"/>
<path d="M12 8C12.8284 8 13.5 7.32843 13.5 6.5C13.5 5.67157 12.8284 5 12 5C11.1716 5 10.5 5.67157 10.5 6.5C10.5 7.32843 11.1716 8 12 8Z" fill="#343434"/>
<path d="M15.2499 7.20016C14.9931 7.34852 14.786 7.56969 14.6549 7.83572C14.5237 8.10175 14.4744 8.40068 14.5131 8.69475C14.5518 8.98881 14.6768 9.26481 14.8723 9.48784C15.0678 9.71087 15.3251 9.87093 15.6116 9.94779C15.898 10.0246 16.2008 10.0149 16.4818 9.91964C16.7627 9.82443 17.009 9.64808 17.1897 9.41288C17.3704 9.17768 17.4773 8.89418 17.497 8.59823C17.5166 8.30228 17.448 8.00716 17.2999 7.75016C17.2015 7.57936 17.0704 7.42963 16.9141 7.30954C16.7578 7.18945 16.5793 7.10134 16.3889 7.05026C16.1985 6.99918 16 6.98613 15.8045 7.01185C15.6091 7.03757 15.4206 7.10156 15.2499 7.20016Z" fill="#343434"/>
<path d="M8.75008 7.20031C8.49309 7.05223 8.19796 6.98367 7.90201 7.00329C7.60606 7.0229 7.32257 7.12982 7.08737 7.31052C6.85217 7.49122 6.67581 7.73759 6.5806 8.01849C6.48539 8.2994 6.4756 8.60222 6.55246 8.88869C6.62931 9.17516 6.78938 9.43242 7.01241 9.62794C7.23544 9.82346 7.51143 9.94847 7.80549 9.98718C8.09956 10.0259 8.3985 9.97653 8.66452 9.84537C8.93055 9.71422 9.15172 9.50714 9.30008 9.25031C9.39868 9.07962 9.46268 8.89116 9.4884 8.69573C9.51412 8.50029 9.50107 8.3017 9.44999 8.11131C9.39891 7.92092 9.3108 7.74246 9.1907 7.58615C9.07061 7.42983 8.92088 7.29872 8.75008 7.20031Z" fill="#343434"/>
<path d="M6.16012 11.2603C5.91409 11.4264 5.72288 11.6618 5.61071 11.9367C5.49854 12.2115 5.47045 12.5135 5.53 12.8043C5.58954 13.0951 5.73405 13.3618 5.94522 13.5704C6.15639 13.7791 6.42472 13.9204 6.71624 13.9764C7.00776 14.0325 7.30937 14.0008 7.58286 13.8853C7.85636 13.7699 8.08945 13.5759 8.25262 13.3279C8.41578 13.0799 8.5017 12.789 8.49947 12.4922C8.49725 12.1953 8.40699 11.9058 8.24012 11.6603C8.13049 11.4966 7.98951 11.3563 7.82532 11.2475C7.66114 11.1387 7.477 11.0635 7.28357 11.0263C7.09014 10.9891 6.89126 10.9906 6.69842 11.0308C6.50558 11.071 6.32262 11.149 6.16012 11.2603Z" fill="#343434"/>
</g>
<defs>
<clipPath id="clip0_1052_979">
<rect width="24" height="24" fill="white"/>
</clipPath>
</defs>
</svg>
