<svg width="24" height="24" viewBox="0 0 24 24" fill="none" xmlns="http://www.w3.org/2000/svg">
<g clip-path="url(#clip0_1052_1515)">
<path d="M21.6001 11.22L17.0001 7.52V5C17.0246 4.49494 16.8478 4.00078 16.5085 3.62587C16.1692 3.25095 15.6951 3.02588 15.1901 3H3.7901C3.28867 3.03096 2.81962 3.25823 2.48458 3.63258C2.14954 4.00693 1.97547 4.49822 2.0001 5V15C1.99082 15.3971 2.1 15.788 2.31371 16.1228C2.52743 16.4576 2.836 16.7212 3.2001 16.88C3.01594 17.3305 2.94416 17.8191 2.99097 18.3036C3.03778 18.7881 3.20176 19.2539 3.46877 19.6609C3.73579 20.0678 4.09781 20.4037 4.5236 20.6395C4.94939 20.8753 5.42617 21.004 5.91279 21.0144C6.39941 21.0249 6.88126 20.9167 7.31677 20.6994C7.75227 20.482 8.12835 20.1619 8.41255 19.7668C8.69675 19.3717 8.88054 18.9133 8.94806 18.4313C9.01558 17.9492 8.9648 17.458 8.8001 17H15.1601C14.9956 17.4531 14.9428 17.9392 15.006 18.4171C15.0693 18.895 15.2467 19.3506 15.5234 19.7454C15.8001 20.1401 16.1678 20.4624 16.5955 20.6849C17.0231 20.9074 17.498 21.0235 17.9801 21.0235C18.4622 21.0235 18.9371 20.9074 19.3647 20.6849C19.7924 20.4624 20.1601 20.1401 20.4368 19.7454C20.7135 19.3506 20.8909 18.895 20.9542 18.4171C21.0174 17.9392 20.9646 17.4531 20.8001 17H21.0001C21.2653 17 21.5197 16.8946 21.7072 16.7071C21.8947 16.5196 22.0001 16.2652 22.0001 16V12C21.997 11.8481 21.9594 11.699 21.8901 11.5638C21.8208 11.4287 21.7216 11.3111 21.6001 11.22ZM20.0001 12.48V15H17.0001V10.08L20.0001 12.48ZM7.0001 18C7.0001 18.1978 6.94145 18.3911 6.83157 18.5556C6.72169 18.72 6.56551 18.8482 6.38278 18.9239C6.20006 18.9996 5.99899 19.0194 5.80501 18.9808C5.61103 18.9422 5.43285 18.847 5.29299 18.7071C5.15314 18.5673 5.0579 18.3891 5.01932 18.1951C4.98073 18.0011 5.00053 17.8 5.07622 17.6173C5.15191 17.4346 5.28008 17.2784 5.44453 17.1685C5.60898 17.0586 5.80232 17 6.0001 17C6.26532 17 6.51967 17.1054 6.70721 17.2929C6.89474 17.4804 7.0001 17.7348 7.0001 18ZM12.0001 15H4.0001V5H15.0001V15H12.0001ZM19.0001 18C19.0001 18.1978 18.9415 18.3911 18.8316 18.5556C18.7217 18.72 18.5655 18.8482 18.3828 18.9239C18.2001 18.9996 17.999 19.0194 17.805 18.9808C17.611 18.9422 17.4328 18.847 17.293 18.7071C17.1531 18.5673 17.0579 18.3891 17.0193 18.1951C16.9807 18.0011 17.0005 17.8 17.0762 17.6173C17.1519 17.4346 17.2801 17.2784 17.4445 17.1685C17.609 17.0586 17.8023 17 18.0001 17C18.2653 17 18.5197 17.1054 18.7072 17.2929C18.8947 17.4804 19.0001 17.7348 19.0001 18Z" fill="#343434"/>
</g>
<defs>
<clipPath id="clip0_1052_1515">
<rect width="24" height="24" fill="white"/>
</clipPath>
</defs>
</svg>
